<?xml version="1.0" encoding="utf-8"?>
<!-- Generator: Adobe Illustrator 28.0.0, SVG Export Plug-In . SVG Version: 6.00 Build 0)  -->
<svg version="1.1" id="Слой_1" xmlns="http://www.w3.org/2000/svg" xmlns:xlink="http://www.w3.org/1999/xlink" x="0px" y="0px"
	 width="28px" height="28px" viewBox="0 0 28 28" style="enable-background:new 0 0 28 28;" xml:space="preserve">
<style type="text/css">
	.st0{fill:#00473C;}
	.st1{fill:#FFFFFF;}
</style>
<g id="_Слой_3">
	<circle class="st0" cx="14" cy="14" r="14"/>
</g>
<g id="_Слой_2">
	<path class="st1" d="M14.3,16.7c0-0.1,0.1-0.1,0.1-0.1c1-1,2.1-2.1,3.1-3.1c0.1-0.1,0.2-0.1,0.2-0.1c0.1,0,0.3,0,0.3,0.2
		c0.1,0.1,0.1,0.3,0,0.4C18,14,18,14,18,14c-1.1,1.1-2.3,2.3-3.4,3.4c-0.2,0.2-0.4,0.2-0.6,0c-1.1-1.1-2.3-2.3-3.4-3.4
		c-0.2-0.2-0.2-0.5,0.1-0.6c0.1,0,0.2,0,0.3,0.1c0.2,0.2,0.4,0.4,0.6,0.6c0.9,0.9,1.7,1.7,2.6,2.6C14.2,16.7,14.3,16.7,14.3,16.7z"
		/>
</g>
</svg>
