<svg width="198" height="43" viewBox="0 0 198 43" fill="none" xmlns="http://www.w3.org/2000/svg">
<g clip-path="url(#clip0_1_5)">
<g clip-path="url(#clip1_1_5)">
<g clip-path="url(#clip2_1_5)">
<mask id="mask0_1_5" style="mask-type:luminance" maskUnits="userSpaceOnUse" x="0" y="0" width="198" height="43">
<path d="M197.815 0.530029H0.0222168V42.1744H197.815V0.530029Z" fill="white"/>
</mask>
<g mask="url(#mask0_1_5)">
<path d="M50.167 13.2613C50.7982 11.2706 50.7749 9.12998 50.0999 7.15369C49.4253 5.17735 48.1347 3.46942 46.4175 2.28056C43.6694 0.339819 37.6066 -1.70572 25.3178 6.39105C13.0291 -1.70572 6.9662 0.339819 4.21811 2.28056C2.50025 3.46858 1.2089 5.17646 0.533957 7.15306C-0.140979 9.12967 -0.163886 11.2707 0.468605 13.2613C0.468605 13.2613 8.30531 5.70015 19.4879 9.6088C10.444 10.7461 2.73927 16.0909 2.73927 23.1086C2.71237 25.0606 3.2468 26.9792 4.27897 28.6362C5.31113 30.2932 6.79762 31.6187 8.56149 32.4552C8.56149 32.4552 8.17334 19.9141 23.0472 13.5834C22.5426 18.8894 20.3301 42.1744 20.3301 42.1744H30.3444C30.3444 42.1744 28.1125 18.8855 27.6273 13.5834C42.5128 19.9141 42.0936 32.4552 42.0936 32.4552C43.8573 31.6187 45.3439 30.2932 46.376 28.6362C47.4085 26.9792 47.9426 25.0606 47.9158 23.1086C47.9158 16.0909 40.211 10.7461 31.1672 9.6088C42.3303 5.70015 50.167 13.2613 50.167 13.2613Z" fill="#00473C"/>
<path d="M194.578 8.42108C193.938 8.42108 193.311 8.61092 192.779 8.96662C192.247 9.32232 191.832 9.82792 191.587 10.4194C191.342 11.0109 191.278 11.6618 191.403 12.2898C191.528 12.9177 191.836 13.4945 192.289 13.9473C192.742 14.4 193.318 14.7083 193.946 14.8332C194.574 14.9581 195.225 14.894 195.817 14.649C196.408 14.404 196.913 13.989 197.269 13.4567C197.625 12.9243 197.815 12.2985 197.815 11.6582C197.814 10.8 197.472 9.97721 196.866 9.37034C196.259 8.76347 195.436 8.42209 194.578 8.42108ZM194.578 14.4878C194.017 14.4878 193.469 14.3216 193.003 14.01C192.537 13.6985 192.174 13.2557 191.96 12.7378C191.745 12.2198 191.689 11.6499 191.799 11.1001C191.909 10.5504 192.179 10.0455 192.576 9.64942C192.972 9.25327 193.478 8.98374 194.027 8.87483C194.577 8.76595 195.147 8.82262 195.665 9.03766C196.183 9.25273 196.625 9.6165 196.936 10.083C197.246 10.5495 197.412 11.0977 197.411 11.6582C197.413 12.0313 197.34 12.401 197.199 12.7461C197.057 13.0912 196.849 13.405 196.585 13.6693C196.322 13.9337 196.009 14.1434 195.665 14.2865C195.32 14.4297 194.951 14.5034 194.578 14.5034V14.4878Z" fill="#00473C"/>
<path d="M195.734 11.7009C195.866 11.5393 195.933 11.3348 195.924 11.1265C195.93 10.9982 195.906 10.8703 195.856 10.7521C195.805 10.634 195.73 10.5285 195.633 10.4433C195.406 10.262 195.12 10.172 194.83 10.191H193.518V13.1332H194.034V12.1085H194.675L195.404 13.1332H196.037L195.222 12.0192C195.421 11.9669 195.599 11.856 195.734 11.7009ZM194.034 11.6505V10.6607H194.787C194.947 10.6511 195.105 10.6948 195.237 10.7849C195.291 10.8285 195.334 10.8844 195.362 10.9479C195.389 11.0114 195.401 11.0806 195.397 11.1498C195.399 11.2191 195.386 11.288 195.358 11.3513C195.329 11.4146 195.287 11.4705 195.234 11.5146C195.107 11.6106 194.95 11.6588 194.791 11.6505H194.034Z" fill="#00473C"/>
<path d="M65.5765 11.6582L64.9167 31.8264H71.8102L71.2746 15.4426H80.0389L79.5072 31.8264H86.4046L85.7408 11.6582H65.5765Z" fill="#00473C"/>
<path d="M119.094 23.8111H127.277L127.024 31.8264H133.937L133.273 11.6582H127.665L127.401 20.0267H118.99L118.726 11.6582H113.098L112.434 31.8264H119.351L119.094 23.8111Z" fill="#00473C"/>
<path d="M138.824 30.953C141.929 32.8006 147.495 32.6065 149.964 29.5867L150.596 28.8104L150.523 31.8729H156.989C156.989 31.8729 156.624 22.4254 156.601 21.8781C156.298 17.5736 155.957 13.04 150.096 11.4641C147.251 10.6878 142.667 10.7266 138.956 13.2418C139.27 13.7891 140.85 16.8749 141.211 17.5115C143.206 16.1025 146.568 15.4232 148.889 16.347C151.4 17.3251 151.012 20.6283 151.012 20.6283L150.507 20.3527C150.193 20.1913 149.867 20.0525 149.533 19.9374C147.995 19.3722 146.366 19.092 144.728 19.1106C144.363 19.1106 143.986 19.1106 143.606 19.1494C142.039 19.23 140.513 19.6724 139.146 20.442C137.504 21.3774 136.487 22.5884 136.041 24.1488C135.676 25.4308 135.752 26.7981 136.257 28.0317C136.761 29.2653 137.665 30.294 138.824 30.953ZM144.914 22.9999C146.672 22.7398 149.056 22.9184 150.465 24.2031L150.651 24.37L150.55 24.6107C149.999 25.8916 147.631 27.7547 145.174 27.7547C143.326 27.7547 142.29 26.6213 142.22 25.5034C142.154 24.5408 142.826 23.3104 144.914 22.9999Z" fill="#00473C"/>
<path d="M166.429 19.8908L171.393 31.8264H176.474L181.439 19.8908L181.062 31.8264H187.964L187.304 11.6582H181.714L173.932 24.5331L166.153 11.6582H160.564L159.904 31.8264H166.806L166.429 19.8908Z" fill="#00473C"/>
<path d="M91.3767 30.953C94.4819 32.8006 100.048 32.6065 102.52 29.5867L103.153 28.8104L103.075 31.8729H109.546C109.546 31.8729 109.177 22.4254 109.138 21.8781C108.839 17.5736 108.498 13.04 102.633 11.4641C99.7918 10.6878 95.2077 10.7266 91.497 13.2418C91.8076 13.7891 93.3873 16.8749 93.7522 17.5115C95.7473 16.1025 99.1047 15.4232 101.426 16.347C103.945 17.3368 103.553 20.6399 103.553 20.6399L103.044 20.3643C102.742 20.2005 102.428 20.0578 102.105 19.9374C100.568 19.3722 98.9409 19.092 97.3037 19.1106C96.9156 19.1106 96.5624 19.1106 96.1781 19.1494C94.6127 19.2306 93.0877 19.673 91.7222 20.442C90.0803 21.3774 89.0595 22.5884 88.617 24.1488C88.2502 25.4282 88.3228 26.7936 88.8231 28.0269C89.3234 29.2603 90.2224 30.2905 91.3767 30.953ZM97.4668 22.9999C99.229 22.7398 101.612 22.9184 103.021 24.2031L103.207 24.37L103.103 24.6107C102.555 25.8916 100.188 27.7547 97.7307 27.7547C95.8831 27.7547 94.8429 26.6213 94.773 25.5034C94.7303 24.5408 95.3824 23.3104 97.4668 22.9999Z" fill="#00473C"/>
</g>
</g>
</g>
</g>
<defs>
<clipPath id="clip0_1_5">
<rect width="198" height="41.92" fill="white" transform="translate(0 0.530029)"/>
</clipPath>
<clipPath id="clip1_1_5">
<rect width="198" height="41.92" fill="white" transform="translate(0 0.530029)"/>
</clipPath>
<clipPath id="clip2_1_5">
<rect width="197.956" height="41.92" fill="white" transform="translate(0.0222168 0.530029)"/>
</clipPath>
</defs>
</svg>
