<?xml version="1.0" encoding="UTF-8"?>
<svg id="_Слой_2" data-name="Слой 2" xmlns="http://www.w3.org/2000/svg" width="228" height="228" viewBox="0 0 228 228">
  <g>
    <path d="m114,227C51.69,227,1,176.31,1,114S51.69,1,114,1s113,50.69,113,113-50.69,113-113,113Zm.79-206.36c-51.04,0-92.57,41.53-92.57,92.57s41.53,92.57,92.57,92.57,92.57-41.53,92.57-92.57S165.84,20.64,114.79,20.64Z" style="fill: #00473c; stroke-width: 0px;"/>
    <path d="m114,1.5c30.05,0,58.3,11.7,79.55,32.95,21.25,21.25,32.95,49.5,32.95,79.55s-11.7,58.3-32.95,79.55c-21.25,21.25-49.5,32.95-79.55,32.95s-58.3-11.7-79.55-32.95C13.2,172.3,1.5,144.05,1.5,114S13.2,55.7,34.45,34.45C55.7,13.2,83.95,1.5,114,1.5m.79,204.78c51.32,0,93.07-41.75,93.07-93.07S166.11,20.14,114.79,20.14,21.72,61.89,21.72,113.21s41.75,93.07,93.07,93.07M114,.5C51.32.5.5,51.32.5,114s50.82,113.5,113.5,113.5,113.5-50.82,113.5-113.5S176.68.5,114,.5h0Zm.79,204.78c-50.85,0-92.07-41.22-92.07-92.07S63.94,21.14,114.79,21.14s92.07,41.22,92.07,92.07-41.22,92.07-92.07,92.07h0Z" style="fill: #00473c; stroke-width: 0px;"/>
  </g>
  <g>
    <rect x="72" y="106" width="84" height="15" style="fill: #00473c; stroke-width: 0px;"/>
    <path d="m155.5,106.5v14h-83v-14h83m1-1h-85v16h85v-16h0Z" style="fill: #00473c; stroke-width: 0px;"/>
  </g>
</svg>