<?xml version="1.0" encoding="UTF-8"?>
<svg id="_Слой_1" data-name="Слой 1" xmlns="http://www.w3.org/2000/svg" width="319.38" height="319.3" viewBox="0 0 319.38 319.3">
  <path d="m206.7,228.22c-60.05,46.22-140.46,30.22-180.99-23.71C-13.73,152.05-7.21,79.13,41.26,33.66c46.43-43.55,120.61-44.94,168.98-3.6,50.62,43.26,61.49,119.39,18.42,175.79.97,1.01,1.96,2.09,2.99,3.12,27.26,27.27,54.49,54.56,81.81,81.77,4.82,4.8,7.11,10.27,5.3,16.92-3.16,11.63-17.44,15.53-26.37,7.2-5.29-4.94-10.28-10.19-15.39-15.31-22.67-22.68-45.35-45.35-68-68.05-.96-.96-1.6-2.24-2.31-3.27ZM31.87,127.49c-.12,52.68,42.66,95.65,95.53,95.93,52.91.29,95.94-42.53,96.09-95.63.15-52.88-42.99-96.14-95.79-96.05-52.71.09-95.72,43.05-95.84,95.75Z" style="stroke-width: 0px;"/>
</svg>